<svg xmlns="http://www.w3.org/2000/svg" xmlns:xlink="http://www.w3.org/1999/xlink" width="1000" zoomAndPan="magnify" viewBox="0 0 750 449.999984" height="600" preserveAspectRatio="xMidYMid meet" version="1.0"><defs><g/></defs><g fill="#000000" fill-opacity="1"><g transform="translate(68.604581, 306.020074)"><g><path d="M 40.53125 2.3125 C 33.0625 2.3125 26.515625 0.523438 20.890625 -3.046875 C 15.273438 -6.628906 10.925781 -11.671875 7.84375 -18.171875 C 4.769531 -24.679688 3.234375 -32.328125 3.234375 -41.109375 C 3.234375 -49.960938 4.882812 -57.640625 8.1875 -64.140625 C 11.5 -70.648438 16.140625 -75.710938 22.109375 -79.328125 C 28.078125 -82.941406 35.101562 -84.75 43.1875 -84.75 C 48.800781 -84.75 53.957031 -83.648438 58.65625 -81.453125 C 63.351562 -79.265625 67.351562 -76.207031 70.65625 -72.28125 C 73.96875 -68.351562 76.28125 -63.695312 77.59375 -58.3125 L 59.234375 -54.609375 C 58.078125 -58.617188 56.015625 -61.832031 53.046875 -64.25 C 50.085938 -66.675781 46.6875 -67.890625 42.84375 -67.890625 C 38.914062 -67.890625 35.445312 -66.789062 32.4375 -64.59375 C 29.4375 -62.40625 27.109375 -59.328125 25.453125 -55.359375 C 23.804688 -51.398438 22.984375 -46.726562 22.984375 -41.34375 C 22.984375 -35.945312 23.925781 -31.207031 25.8125 -27.125 C 27.695312 -23.050781 30.332031 -19.878906 33.71875 -17.609375 C 37.101562 -15.335938 41.03125 -14.203125 45.5 -14.203125 C 51.425781 -14.203125 56.273438 -16.046875 60.046875 -19.734375 C 63.816406 -23.429688 65.816406 -28.320312 66.046875 -34.40625 L 36.25 -34.40625 L 36.25 -46.65625 L 85.09375 -46.65625 L 85.09375 0 L 70.671875 0 L 69.171875 -14.546875 L 69.046875 -14.546875 C 66.429688 -9.316406 62.582031 -5.195312 57.5 -2.1875 C 52.414062 0.8125 46.757812 2.3125 40.53125 2.3125 Z M 40.53125 2.3125 "/></g></g></g><g fill="#000000" fill-opacity="1"><g transform="translate(157.849882, 306.020074)"><g><path d="M 20.4375 1.390625 C 14.820312 1.390625 10.28125 -0.109375 6.8125 -3.109375 C 3.34375 -6.117188 1.609375 -10.160156 1.609375 -15.234375 C 1.609375 -20.628906 3.664062 -25 7.78125 -28.34375 C 11.90625 -31.695312 17.929688 -33.796875 25.859375 -34.640625 L 34.984375 -35.6875 C 36.296875 -35.832031 37.351562 -36.289062 38.15625 -37.0625 C 38.96875 -37.832031 39.375 -38.945312 39.375 -40.40625 C 39.375 -43.03125 38.566406 -45.035156 36.953125 -46.421875 C 35.335938 -47.804688 33.21875 -48.5 30.59375 -48.5 C 27.59375 -48.5 25.164062 -47.457031 23.3125 -45.375 C 21.46875 -43.300781 20.472656 -40.6875 20.328125 -37.53125 L 3.578125 -39.953125 C 3.734375 -44.109375 4.945312 -47.78125 7.21875 -50.96875 C 9.488281 -54.164062 12.601562 -56.671875 16.5625 -58.484375 C 20.53125 -60.296875 25.171875 -61.203125 30.484375 -61.203125 C 38.566406 -61.203125 44.953125 -59.082031 49.640625 -54.84375 C 54.335938 -50.613281 56.6875 -44.878906 56.6875 -37.640625 L 56.6875 -14.78125 C 56.6875 -12.164062 57.648438 -10.859375 59.578125 -10.859375 C 61.117188 -10.859375 62.582031 -11.625 63.96875 -13.15625 L 67.78125 -3.6875 C 65.9375 -1.925781 63.703125 -0.625 61.078125 0.21875 C 58.460938 1.070312 55.882812 1.5 53.34375 1.5 C 49.800781 1.5 46.816406 0.597656 44.390625 -1.203125 C 41.972656 -3.015625 40.457031 -5.304688 39.84375 -8.078125 L 39.609375 -9.578125 L 39.484375 -9.578125 C 37.710938 -6.191406 35.171875 -3.515625 31.859375 -1.546875 C 28.554688 0.410156 24.75 1.390625 20.4375 1.390625 Z M 27.71875 -10.96875 C 31.019531 -10.96875 33.75 -12.140625 35.90625 -14.484375 C 38.0625 -16.835938 39.140625 -19.898438 39.140625 -23.671875 L 39.140625 -26.4375 L 30.484375 -25.515625 C 26.484375 -25.054688 23.613281 -24.09375 21.875 -22.625 C 20.144531 -21.164062 19.28125 -19.4375 19.28125 -17.4375 C 19.28125 -15.507812 20.066406 -13.945312 21.640625 -12.75 C 23.222656 -11.5625 25.25 -10.96875 27.71875 -10.96875 Z M 27.71875 -10.96875 "/></g></g></g><g fill="#000000" fill-opacity="1"><g transform="translate(225.620896, 306.020074)"><g><path d="M 4.390625 0 L 4.390625 -59.125 L 18.46875 -59.125 L 20.90625 -48.5 L 21.015625 -48.5 C 22.554688 -52.34375 24.976562 -55.34375 28.28125 -57.5 C 31.59375 -59.65625 35.328125 -60.734375 39.484375 -60.734375 C 43.796875 -60.734375 47.375 -59.65625 50.21875 -57.5 C 53.070312 -55.34375 55.113281 -52.265625 56.34375 -48.265625 L 56.46875 -48.265625 C 58.382812 -52.347656 61.035156 -55.445312 64.421875 -57.5625 C 67.816406 -59.675781 71.59375 -60.734375 75.75 -60.734375 C 81.21875 -60.734375 85.453125 -58.984375 88.453125 -55.484375 C 91.453125 -51.984375 92.953125 -47.113281 92.953125 -40.875 L 92.953125 0 L 75.28125 0 L 75.28125 -37.1875 C 75.28125 -39.875 74.585938 -41.96875 73.203125 -43.46875 C 71.816406 -44.96875 69.851562 -45.71875 67.3125 -45.71875 C 64.238281 -45.71875 61.832031 -44.640625 60.09375 -42.484375 C 58.363281 -40.335938 57.5 -37.414062 57.5 -33.71875 L 57.5 0 L 39.84375 0 L 39.84375 -37.1875 C 39.84375 -39.875 39.148438 -41.96875 37.765625 -43.46875 C 36.378906 -44.96875 34.414062 -45.71875 31.875 -45.71875 C 28.789062 -45.71875 26.363281 -44.640625 24.59375 -42.484375 C 22.820312 -40.335938 21.9375 -37.414062 21.9375 -33.71875 L 21.9375 0 Z M 4.390625 0 "/></g></g></g><g fill="#000000" fill-opacity="1"><g transform="translate(322.601555, 306.020074)"><g><path d="M 4.390625 0 L 4.390625 -59.125 L 18.46875 -59.125 L 20.90625 -48.5 L 21.015625 -48.5 C 22.554688 -52.34375 24.976562 -55.34375 28.28125 -57.5 C 31.59375 -59.65625 35.328125 -60.734375 39.484375 -60.734375 C 43.796875 -60.734375 47.375 -59.65625 50.21875 -57.5 C 53.070312 -55.34375 55.113281 -52.265625 56.34375 -48.265625 L 56.46875 -48.265625 C 58.382812 -52.347656 61.035156 -55.445312 64.421875 -57.5625 C 67.816406 -59.675781 71.59375 -60.734375 75.75 -60.734375 C 81.21875 -60.734375 85.453125 -58.984375 88.453125 -55.484375 C 91.453125 -51.984375 92.953125 -47.113281 92.953125 -40.875 L 92.953125 0 L 75.28125 0 L 75.28125 -37.1875 C 75.28125 -39.875 74.585938 -41.96875 73.203125 -43.46875 C 71.816406 -44.96875 69.851562 -45.71875 67.3125 -45.71875 C 64.238281 -45.71875 61.832031 -44.640625 60.09375 -42.484375 C 58.363281 -40.335938 57.5 -37.414062 57.5 -33.71875 L 57.5 0 L 39.84375 0 L 39.84375 -37.1875 C 39.84375 -39.875 39.148438 -41.96875 37.765625 -43.46875 C 36.378906 -44.96875 34.414062 -45.71875 31.875 -45.71875 C 28.789062 -45.71875 26.363281 -44.640625 24.59375 -42.484375 C 22.820312 -40.335938 21.9375 -37.414062 21.9375 -33.71875 L 21.9375 0 Z M 4.390625 0 "/></g></g></g><g fill="#000000" fill-opacity="1"><g transform="translate(419.582215, 306.020074)"><g><path d="M 20.4375 1.390625 C 14.820312 1.390625 10.28125 -0.109375 6.8125 -3.109375 C 3.34375 -6.117188 1.609375 -10.160156 1.609375 -15.234375 C 1.609375 -20.628906 3.664062 -25 7.78125 -28.34375 C 11.90625 -31.695312 17.929688 -33.796875 25.859375 -34.640625 L 34.984375 -35.6875 C 36.296875 -35.832031 37.351562 -36.289062 38.15625 -37.0625 C 38.96875 -37.832031 39.375 -38.945312 39.375 -40.40625 C 39.375 -43.03125 38.566406 -45.035156 36.953125 -46.421875 C 35.335938 -47.804688 33.21875 -48.5 30.59375 -48.5 C 27.59375 -48.5 25.164062 -47.457031 23.3125 -45.375 C 21.46875 -43.300781 20.472656 -40.6875 20.328125 -37.53125 L 3.578125 -39.953125 C 3.734375 -44.109375 4.945312 -47.78125 7.21875 -50.96875 C 9.488281 -54.164062 12.601562 -56.671875 16.5625 -58.484375 C 20.53125 -60.296875 25.171875 -61.203125 30.484375 -61.203125 C 38.566406 -61.203125 44.953125 -59.082031 49.640625 -54.84375 C 54.335938 -50.613281 56.6875 -44.878906 56.6875 -37.640625 L 56.6875 -14.78125 C 56.6875 -12.164062 57.648438 -10.859375 59.578125 -10.859375 C 61.117188 -10.859375 62.582031 -11.625 63.96875 -13.15625 L 67.78125 -3.6875 C 65.9375 -1.925781 63.703125 -0.625 61.078125 0.21875 C 58.460938 1.070312 55.882812 1.5 53.34375 1.5 C 49.800781 1.5 46.816406 0.597656 44.390625 -1.203125 C 41.972656 -3.015625 40.457031 -5.304688 39.84375 -8.078125 L 39.609375 -9.578125 L 39.484375 -9.578125 C 37.710938 -6.191406 35.171875 -3.515625 31.859375 -1.546875 C 28.554688 0.410156 24.75 1.390625 20.4375 1.390625 Z M 27.71875 -10.96875 C 31.019531 -10.96875 33.75 -12.140625 35.90625 -14.484375 C 38.0625 -16.835938 39.140625 -19.898438 39.140625 -23.671875 L 39.140625 -26.4375 L 30.484375 -25.515625 C 26.484375 -25.054688 23.613281 -24.09375 21.875 -22.625 C 20.144531 -21.164062 19.28125 -19.4375 19.28125 -17.4375 C 19.28125 -15.507812 20.066406 -13.945312 21.640625 -12.75 C 23.222656 -11.5625 25.25 -10.96875 27.71875 -10.96875 Z M 27.71875 -10.96875 "/></g></g></g><g fill="#000000" fill-opacity="1"><g transform="translate(487.353206, 306.020074)"><g><path d="M 5.765625 0 L 5.765625 -82.21875 L 25.515625 -82.21875 L 25.515625 -16.96875 L 55.078125 -16.96875 L 55.078125 0 Z M 5.765625 0 "/></g></g></g><g fill="#000000" fill-opacity="1"><g transform="translate(544.15618, 306.020074)"><g><path d="M 13.625 -67.203125 C 10.46875 -67.203125 7.945312 -68.125 6.0625 -69.96875 C 4.175781 -71.820312 3.234375 -74.25 3.234375 -77.25 C 3.234375 -80.332031 4.175781 -82.796875 6.0625 -84.640625 C 7.945312 -86.484375 10.46875 -87.40625 13.625 -87.40625 C 16.78125 -87.40625 19.300781 -86.484375 21.1875 -84.640625 C 23.070312 -82.796875 24.015625 -80.332031 24.015625 -77.25 C 24.015625 -74.25 23.070312 -71.820312 21.1875 -69.96875 C 19.300781 -68.125 16.78125 -67.203125 13.625 -67.203125 Z M 4.734375 0 L 4.734375 -59.125 L 22.40625 -59.125 L 22.40625 0 Z M 4.734375 0 "/></g></g></g><g fill="#000000" fill-opacity="1"><g transform="translate(571.403142, 306.020074)"><g><path d="M 10.96875 0 L 10.96875 -45.71875 L 0.46875 -45.71875 L 0.46875 -59.125 L 10.96875 -59.125 L 10.96875 -66.96875 C 10.96875 -73.363281 12.910156 -78.367188 16.796875 -81.984375 C 20.679688 -85.597656 25.898438 -87.40625 32.453125 -87.40625 C 36.753906 -87.40625 40.5625 -86.519531 43.875 -84.75 C 47.1875 -82.976562 49.726562 -80.59375 51.5 -77.59375 L 45.609375 -66.625 C 44.679688 -68.550781 43.367188 -70.109375 41.671875 -71.296875 C 39.984375 -72.492188 38.140625 -73.09375 36.140625 -73.09375 C 33.828125 -73.09375 31.976562 -72.320312 30.59375 -70.78125 C 29.207031 -69.238281 28.515625 -67.238281 28.515625 -64.78125 L 28.515625 -59.125 L 47.453125 -59.125 L 47.453125 -45.71875 L 28.515625 -45.71875 L 28.640625 0 Z M 10.96875 0 "/></g></g></g><g fill="#000000" fill-opacity="1"><g transform="translate(622.317994, 306.020074)"><g><path d="M 31.640625 1.84375 C 24.867188 1.84375 19.648438 0 15.984375 -3.6875 C 12.328125 -7.382812 10.5 -12.390625 10.5 -18.703125 L 10.390625 -45.71875 L 0.46875 -45.71875 L 0.46875 -59.125 L 10.5 -59.125 L 10.5 -74.828125 L 28.0625 -78.75 L 28.0625 -59.125 L 48.265625 -59.125 L 48.265625 -45.71875 L 28.0625 -45.71875 L 28.171875 -21.828125 C 28.171875 -18.898438 28.863281 -16.609375 30.25 -14.953125 C 31.632812 -13.296875 33.484375 -12.46875 35.796875 -12.46875 C 40.179688 -12.46875 43.375 -14.894531 45.375 -19.75 L 51.15625 -9 C 49.300781 -5.539062 46.660156 -2.867188 43.234375 -0.984375 C 39.816406 0.898438 35.953125 1.84375 31.640625 1.84375 Z M 31.640625 1.84375 "/></g></g></g><g fill="#000000" fill-opacity="1"><g transform="translate(-8.047757, 344.963858)"><g><path d="M 147.796875 -195.0625 L 147.796875 -160.90625 L 65.84375 -160.90625 L 65.84375 0 L 24.59375 0 L 24.59375 -195.0625 Z M 147.796875 -195.0625 "/></g></g></g><g fill="#3898ec" fill-opacity="1"><g transform="translate(611.290627, 367.672431)"><g><path d="M 7.15625 -51.625 C 9.988281 -52.4375 12.644531 -52.734375 15.125 -52.515625 C 17.601562 -52.296875 19.722656 -51.519531 21.484375 -50.1875 C 23.253906 -48.851562 24.503906 -46.910156 25.234375 -44.359375 C 26.054688 -41.492188 25.960938 -39 24.953125 -36.875 C 23.953125 -34.75 22.15625 -33.070312 19.5625 -31.84375 L 19.609375 -31.671875 C 23.117188 -32.253906 26.097656 -31.921875 28.546875 -30.671875 C 30.992188 -29.429688 32.738281 -26.992188 33.78125 -23.359375 C 34.976562 -19.179688 34.613281 -15.5625 32.6875 -12.5 C 30.757812 -9.4375 27.625 -7.28125 23.28125 -6.03125 C 19.40625 -4.925781 16.054688 -4.640625 13.234375 -5.171875 L 17.71875 10.46875 L 8.796875 13.03125 L -4.515625 -33.375 C -5.441406 -36.601562 -5.503906 -39.421875 -4.703125 -41.828125 C -3.910156 -44.242188 -2.472656 -46.265625 -0.390625 -47.890625 C 1.679688 -49.523438 4.195312 -50.769531 7.15625 -51.625 Z M 8.890625 -44.609375 C 7.742188 -44.273438 6.734375 -43.742188 5.859375 -43.015625 C 4.984375 -42.285156 4.414062 -41.289062 4.15625 -40.03125 C 3.894531 -38.78125 4.054688 -37.132812 4.640625 -35.09375 L 11.140625 -12.46875 C 12.304688 -12.101562 13.617188 -11.9375 15.078125 -11.96875 C 16.546875 -12 17.835938 -12.175781 18.953125 -12.5 C 21.429688 -13.207031 23.101562 -14.347656 23.96875 -15.921875 C 24.832031 -17.492188 24.957031 -19.351562 24.34375 -21.5 C 23.632812 -23.976562 22.394531 -25.476562 20.625 -26 C 18.851562 -26.519531 16.929688 -26.484375 14.859375 -25.890625 L 12.765625 -25.296875 L 10.734375 -32.375 L 12.28125 -32.8125 C 14.40625 -33.425781 15.789062 -34.4375 16.4375 -35.84375 C 17.082031 -37.257812 17.144531 -38.882812 16.625 -40.71875 C 16.082031 -42.601562 15.117188 -43.851562 13.734375 -44.46875 C 12.347656 -45.09375 10.734375 -45.140625 8.890625 -44.609375 Z M 8.890625 -44.609375 "/></g></g></g><g fill="#3898ec" fill-opacity="1"><g transform="translate(650.804113, 356.333562)"><g><path d="M 18.203125 -4.125 C 14.890625 -3.164062 11.78125 -3.003906 8.875 -3.640625 C 5.96875 -4.273438 3.46875 -5.644531 1.375 -7.75 C -0.71875 -9.851562 -2.238281 -12.554688 -3.1875 -15.859375 C -4.125 -19.128906 -4.3125 -22.15625 -3.75 -24.9375 C -3.1875 -27.71875 -1.960938 -30.113281 -0.078125 -32.125 C 1.796875 -34.132812 4.269531 -35.578125 7.34375 -36.453125 C 10.300781 -37.304688 13.046875 -37.390625 15.578125 -36.703125 C 18.109375 -36.023438 20.316406 -34.691406 22.203125 -32.703125 C 24.085938 -30.722656 25.484375 -28.15625 26.390625 -25 C 26.578125 -24.363281 26.722656 -23.742188 26.828125 -23.140625 C 26.929688 -22.546875 26.984375 -22.035156 26.984375 -21.609375 L 6.75 -15.796875 C 7.570312 -13.628906 8.851562 -12.09375 10.59375 -11.1875 C 12.332031 -10.28125 14.257812 -10.128906 16.375 -10.734375 C 18 -11.203125 19.328125 -12.007812 20.359375 -13.15625 C 21.390625 -14.3125 22.019531 -15.6875 22.25 -17.28125 L 29.46875 -16.28125 C 29.320312 -13.476562 28.203125 -10.976562 26.109375 -8.78125 C 24.023438 -6.59375 21.390625 -5.039062 18.203125 -4.125 Z M 5.25 -21 L 16.734375 -24.296875 C 15.984375 -26.503906 14.945312 -28.085938 13.625 -29.046875 C 12.3125 -30.003906 10.835938 -30.25 9.203125 -29.78125 C 7.484375 -29.289062 6.285156 -28.269531 5.609375 -26.71875 C 4.929688 -25.164062 4.8125 -23.257812 5.25 -21 Z M 5.25 -21 "/></g></g></g><g fill="#3898ec" fill-opacity="1"><g transform="translate(683.492543, 346.953224)"><g><path d="M 16.6875 -3.734375 C 13.164062 -2.722656 10.179688 -2.90625 7.734375 -4.28125 C 5.296875 -5.664062 3.609375 -7.992188 2.671875 -11.265625 L -1.40625 -25.25 L -6.5625 -23.765625 L -8.5625 -30.71875 L -3.34375 -32.21875 L -5.671875 -40.359375 L 2.828125 -45 L 5.75 -34.828125 L 16.21875 -37.84375 L 18.21875 -30.890625 L 7.75 -27.875 L 11.359375 -15.5 C 11.796875 -13.988281 12.492188 -12.90625 13.453125 -12.25 C 14.421875 -11.59375 15.503906 -11.4375 16.703125 -11.78125 C 18.972656 -12.4375 20.265625 -14.175781 20.578125 -17 L 25.171875 -12.28125 C 24.734375 -10.21875 23.765625 -8.4375 22.265625 -6.9375 C 20.773438 -5.445312 18.914062 -4.378906 16.6875 -3.734375 Z M 16.6875 -3.734375 "/></g></g></g><g fill="#3898ec" fill-opacity="1"><g transform="translate(710.433556, 339.222177)"><g><path d="M 10.8125 -2.328125 C 7.894531 -1.484375 5.3125 -1.582031 3.0625 -2.625 C 0.820312 -3.664062 -0.671875 -5.503906 -1.421875 -8.140625 C -2.222656 -10.929688 -1.804688 -13.5 -0.171875 -15.84375 C 1.453125 -18.195312 4.257812 -20.1875 8.25 -21.8125 L 12.828125 -23.703125 C 13.484375 -23.984375 13.960938 -24.378906 14.265625 -24.890625 C 14.566406 -25.410156 14.609375 -26.050781 14.390625 -26.8125 C 14.003906 -28.175781 13.289062 -29.09375 12.25 -29.5625 C 11.207031 -30.039062 10.003906 -30.082031 8.640625 -29.6875 C 7.085938 -29.25 5.988281 -28.351562 5.34375 -27 C 4.695312 -25.644531 4.570312 -24.140625 4.96875 -22.484375 L -4.078125 -21.234375 C -4.617188 -23.410156 -4.535156 -25.492188 -3.828125 -27.484375 C -3.128906 -29.484375 -1.890625 -31.25 -0.109375 -32.78125 C 1.671875 -34.3125 3.9375 -35.472656 6.6875 -36.265625 C 10.882812 -37.472656 14.515625 -37.328125 17.578125 -35.828125 C 20.640625 -34.328125 22.710938 -31.703125 23.796875 -27.953125 L 27.1875 -16.09375 C 27.582031 -14.738281 28.28125 -14.203125 29.28125 -14.484375 C 30.070312 -14.710938 30.710938 -15.328125 31.203125 -16.328125 L 34.59375 -12 C 33.894531 -10.8125 32.925781 -9.800781 31.6875 -8.96875 C 30.457031 -8.132812 29.191406 -7.53125 27.890625 -7.15625 C 26.046875 -6.625 24.359375 -6.648438 22.828125 -7.234375 C 21.296875 -7.816406 20.171875 -8.773438 19.453125 -10.109375 L 19.109375 -10.859375 L 19.046875 -10.84375 C 18.640625 -8.820312 17.722656 -7.054688 16.296875 -5.546875 C 14.867188 -4.035156 13.039062 -2.960938 10.8125 -2.328125 Z M 12.734375 -9.8125 C 14.441406 -10.300781 15.679688 -11.316406 16.453125 -12.859375 C 17.222656 -14.398438 17.332031 -16.144531 16.78125 -18.09375 L 16.359375 -19.546875 L 12 -17.765625 C 10 -16.929688 8.65625 -16.007812 7.96875 -15 C 7.289062 -13.988281 7.101562 -12.960938 7.40625 -11.921875 C 7.695312 -10.921875 8.335938 -10.226562 9.328125 -9.84375 C 10.316406 -9.457031 11.453125 -9.445312 12.734375 -9.8125 Z M 12.734375 -9.8125 "/></g></g></g></svg>