<svg xmlns="http://www.w3.org/2000/svg" xmlns:xlink="http://www.w3.org/1999/xlink" width="1000" zoomAndPan="magnify" viewBox="0 0 750 449.999984" height="600" preserveAspectRatio="xMidYMid meet" version="1.0"><defs><g/></defs><g fill="#000000" fill-opacity="1"><g transform="translate(96.163417, 277.481446)"><g><path d="M 41.84375 2.390625 C 34.132812 2.390625 27.378906 0.539062 21.578125 -3.15625 C 15.773438 -6.851562 11.285156 -12.0625 8.109375 -18.78125 C 4.929688 -25.5 3.34375 -33.390625 3.34375 -42.453125 C 3.34375 -51.585938 5.050781 -59.515625 8.46875 -66.234375 C 11.882812 -72.953125 16.671875 -78.175781 22.828125 -81.90625 C 28.992188 -85.644531 36.25 -87.515625 44.59375 -87.515625 C 50.394531 -87.515625 55.71875 -86.378906 60.5625 -84.109375 C 65.414062 -81.847656 69.550781 -78.691406 72.96875 -74.640625 C 76.382812 -70.585938 78.769531 -65.78125 80.125 -60.21875 L 61.171875 -56.390625 C 59.972656 -60.523438 57.84375 -63.84375 54.78125 -66.34375 C 51.726562 -68.851562 48.210938 -70.109375 44.234375 -70.109375 C 40.179688 -70.109375 36.601562 -68.972656 33.5 -66.703125 C 30.40625 -64.441406 28.003906 -61.265625 26.296875 -57.171875 C 24.585938 -53.078125 23.734375 -48.25 23.734375 -42.6875 C 23.734375 -37.125 24.703125 -32.234375 26.640625 -28.015625 C 28.585938 -23.804688 31.3125 -20.53125 34.8125 -18.1875 C 38.3125 -15.84375 42.367188 -14.671875 46.984375 -14.671875 C 53.097656 -14.671875 58.101562 -16.578125 62 -20.390625 C 65.894531 -24.203125 67.960938 -29.25 68.203125 -35.53125 L 37.4375 -35.53125 L 37.4375 -48.171875 L 87.875 -48.171875 L 87.875 0 L 72.96875 0 L 71.421875 -15.03125 L 71.296875 -15.03125 C 68.597656 -9.625 64.625 -5.367188 59.375 -2.265625 C 54.132812 0.835938 48.289062 2.390625 41.84375 2.390625 Z M 41.84375 2.390625 "/></g></g></g><g fill="#000000" fill-opacity="1"><g transform="translate(188.329169, 277.481446)"><g><path d="M 21.109375 1.4375 C 15.304688 1.4375 10.613281 -0.113281 7.03125 -3.21875 C 3.457031 -6.320312 1.671875 -10.492188 1.671875 -15.734375 C 1.671875 -21.296875 3.796875 -25.804688 8.046875 -29.265625 C 12.296875 -32.722656 18.515625 -34.890625 26.703125 -35.765625 L 36.125 -36.84375 C 37.476562 -37 38.570312 -37.472656 39.40625 -38.265625 C 40.238281 -39.066406 40.65625 -40.222656 40.65625 -41.734375 C 40.65625 -44.429688 39.820312 -46.492188 38.15625 -47.921875 C 36.488281 -49.359375 34.300781 -50.078125 31.59375 -50.078125 C 28.5 -50.078125 25.992188 -49.003906 24.078125 -46.859375 C 22.171875 -44.710938 21.140625 -42.007812 20.984375 -38.75 L 3.703125 -41.25 C 3.859375 -45.539062 5.109375 -49.335938 7.453125 -52.640625 C 9.796875 -55.941406 13.015625 -58.523438 17.109375 -60.390625 C 21.203125 -62.253906 25.992188 -63.1875 31.484375 -63.1875 C 39.828125 -63.1875 46.421875 -61 51.265625 -56.625 C 56.117188 -52.257812 58.546875 -46.34375 58.546875 -38.875 L 58.546875 -15.265625 C 58.546875 -12.554688 59.539062 -11.203125 61.53125 -11.203125 C 63.113281 -11.203125 64.625 -12 66.0625 -13.59375 L 69.984375 -3.8125 C 68.078125 -1.988281 65.769531 -0.640625 63.0625 0.234375 C 60.363281 1.109375 57.707031 1.546875 55.09375 1.546875 C 51.425781 1.546875 48.34375 0.613281 45.84375 -1.25 C 43.34375 -3.113281 41.773438 -5.476562 41.140625 -8.34375 L 40.890625 -9.890625 L 40.78125 -9.890625 C 38.945312 -6.398438 36.320312 -3.640625 32.90625 -1.609375 C 29.488281 0.421875 25.554688 1.4375 21.109375 1.4375 Z M 28.609375 -11.328125 C 32.035156 -11.328125 34.859375 -12.535156 37.078125 -14.953125 C 39.304688 -17.378906 40.421875 -20.539062 40.421875 -24.4375 L 40.421875 -27.296875 L 31.484375 -26.34375 C 27.347656 -25.875 24.382812 -24.882812 22.59375 -23.375 C 20.800781 -21.863281 19.90625 -20.070312 19.90625 -18 C 19.90625 -16.019531 20.71875 -14.410156 22.34375 -13.171875 C 23.976562 -11.941406 26.066406 -11.328125 28.609375 -11.328125 Z M 28.609375 -11.328125 "/></g></g></g><g fill="#000000" fill-opacity="1"><g transform="translate(258.317897, 277.481446)"><g><path d="M 4.53125 0 L 4.53125 -61.046875 L 19.078125 -61.046875 L 21.578125 -50.078125 L 21.703125 -50.078125 C 23.285156 -54.054688 25.785156 -57.15625 29.203125 -59.375 C 32.628906 -61.601562 36.488281 -62.71875 40.78125 -62.71875 C 45.226562 -62.71875 48.921875 -61.601562 51.859375 -59.375 C 54.804688 -57.15625 56.914062 -53.976562 58.1875 -49.84375 L 58.3125 -49.84375 C 60.289062 -54.050781 63.03125 -57.25 66.53125 -59.4375 C 70.03125 -61.625 73.925781 -62.71875 78.21875 -62.71875 C 83.863281 -62.71875 88.234375 -60.90625 91.328125 -57.28125 C 94.429688 -53.664062 95.984375 -48.640625 95.984375 -42.203125 L 95.984375 0 L 77.734375 0 L 77.734375 -38.390625 C 77.734375 -41.171875 77.019531 -43.335938 75.59375 -44.890625 C 74.164062 -46.441406 72.140625 -47.21875 69.515625 -47.21875 C 66.335938 -47.21875 63.851562 -46.101562 62.0625 -43.875 C 60.269531 -41.65625 59.375 -38.632812 59.375 -34.8125 L 59.375 0 L 41.140625 0 L 41.140625 -38.390625 C 41.140625 -41.171875 40.421875 -43.335938 38.984375 -44.890625 C 37.554688 -46.441406 35.53125 -47.21875 32.90625 -47.21875 C 29.726562 -47.21875 27.222656 -46.101562 25.390625 -43.875 C 23.566406 -41.65625 22.65625 -38.632812 22.65625 -34.8125 L 22.65625 0 Z M 4.53125 0 "/></g></g></g><g fill="#000000" fill-opacity="1"><g transform="translate(358.472119, 277.481446)"><g><path d="M 4.53125 0 L 4.53125 -61.046875 L 19.078125 -61.046875 L 21.578125 -50.078125 L 21.703125 -50.078125 C 23.285156 -54.054688 25.785156 -57.15625 29.203125 -59.375 C 32.628906 -61.601562 36.488281 -62.71875 40.78125 -62.71875 C 45.226562 -62.71875 48.921875 -61.601562 51.859375 -59.375 C 54.804688 -57.15625 56.914062 -53.976562 58.1875 -49.84375 L 58.3125 -49.84375 C 60.289062 -54.050781 63.03125 -57.25 66.53125 -59.4375 C 70.03125 -61.625 73.925781 -62.71875 78.21875 -62.71875 C 83.863281 -62.71875 88.234375 -60.90625 91.328125 -57.28125 C 94.429688 -53.664062 95.984375 -48.640625 95.984375 -42.203125 L 95.984375 0 L 77.734375 0 L 77.734375 -38.390625 C 77.734375 -41.171875 77.019531 -43.335938 75.59375 -44.890625 C 74.164062 -46.441406 72.140625 -47.21875 69.515625 -47.21875 C 66.335938 -47.21875 63.851562 -46.101562 62.0625 -43.875 C 60.269531 -41.65625 59.375 -38.632812 59.375 -34.8125 L 59.375 0 L 41.140625 0 L 41.140625 -38.390625 C 41.140625 -41.171875 40.421875 -43.335938 38.984375 -44.890625 C 37.554688 -46.441406 35.53125 -47.21875 32.90625 -47.21875 C 29.726562 -47.21875 27.222656 -46.101562 25.390625 -43.875 C 23.566406 -41.65625 22.65625 -38.632812 22.65625 -34.8125 L 22.65625 0 Z M 4.53125 0 "/></g></g></g><g fill="#000000" fill-opacity="1"><g transform="translate(458.626341, 277.481446)"><g><path d="M 21.109375 1.4375 C 15.304688 1.4375 10.613281 -0.113281 7.03125 -3.21875 C 3.457031 -6.320312 1.671875 -10.492188 1.671875 -15.734375 C 1.671875 -21.296875 3.796875 -25.804688 8.046875 -29.265625 C 12.296875 -32.722656 18.515625 -34.890625 26.703125 -35.765625 L 36.125 -36.84375 C 37.476562 -37 38.570312 -37.472656 39.40625 -38.265625 C 40.238281 -39.066406 40.65625 -40.222656 40.65625 -41.734375 C 40.65625 -44.429688 39.820312 -46.492188 38.15625 -47.921875 C 36.488281 -49.359375 34.300781 -50.078125 31.59375 -50.078125 C 28.5 -50.078125 25.992188 -49.003906 24.078125 -46.859375 C 22.171875 -44.710938 21.140625 -42.007812 20.984375 -38.75 L 3.703125 -41.25 C 3.859375 -45.539062 5.109375 -49.335938 7.453125 -52.640625 C 9.796875 -55.941406 13.015625 -58.523438 17.109375 -60.390625 C 21.203125 -62.253906 25.992188 -63.1875 31.484375 -63.1875 C 39.828125 -63.1875 46.421875 -61 51.265625 -56.625 C 56.117188 -52.257812 58.546875 -46.34375 58.546875 -38.875 L 58.546875 -15.265625 C 58.546875 -12.554688 59.539062 -11.203125 61.53125 -11.203125 C 63.113281 -11.203125 64.625 -12 66.0625 -13.59375 L 69.984375 -3.8125 C 68.078125 -1.988281 65.769531 -0.640625 63.0625 0.234375 C 60.363281 1.109375 57.707031 1.546875 55.09375 1.546875 C 51.425781 1.546875 48.34375 0.613281 45.84375 -1.25 C 43.34375 -3.113281 41.773438 -5.476562 41.140625 -8.34375 L 40.890625 -9.890625 L 40.78125 -9.890625 C 38.945312 -6.398438 36.320312 -3.640625 32.90625 -1.609375 C 29.488281 0.421875 25.554688 1.4375 21.109375 1.4375 Z M 28.609375 -11.328125 C 32.035156 -11.328125 34.859375 -12.535156 37.078125 -14.953125 C 39.304688 -17.378906 40.421875 -20.539062 40.421875 -24.4375 L 40.421875 -27.296875 L 31.484375 -26.34375 C 27.347656 -25.875 24.382812 -24.882812 22.59375 -23.375 C 20.800781 -21.863281 19.90625 -20.070312 19.90625 -18 C 19.90625 -16.019531 20.71875 -14.410156 22.34375 -13.171875 C 23.976562 -11.941406 26.066406 -11.328125 28.609375 -11.328125 Z M 28.609375 -11.328125 "/></g></g></g><g fill="#000000" fill-opacity="1"><g transform="translate(528.615069, 277.481446)"><g><path d="M 5.96875 0 L 5.96875 -84.890625 L 26.34375 -84.890625 L 26.34375 -17.53125 L 56.875 -17.53125 L 56.875 0 Z M 5.96875 0 "/></g></g></g><g fill="#000000" fill-opacity="1"><g transform="translate(587.276847, 277.481446)"><g><path d="M 14.0625 -69.390625 C 10.8125 -69.390625 8.210938 -70.34375 6.265625 -72.25 C 4.316406 -74.164062 3.34375 -76.671875 3.34375 -79.765625 C 3.34375 -82.941406 4.316406 -85.484375 6.265625 -87.390625 C 8.210938 -89.304688 10.8125 -90.265625 14.0625 -90.265625 C 17.320312 -90.265625 19.925781 -89.304688 21.875 -87.390625 C 23.820312 -85.484375 24.796875 -82.941406 24.796875 -79.765625 C 24.796875 -76.671875 23.820312 -74.164062 21.875 -72.25 C 19.925781 -70.34375 17.320312 -69.390625 14.0625 -69.390625 Z M 4.890625 0 L 4.890625 -61.046875 L 23.125 -61.046875 L 23.125 0 Z M 4.890625 0 "/></g></g></g><g fill="#000000" fill-opacity="1"><g transform="translate(615.41543, 277.481446)"><g><path d="M 11.328125 0 L 11.328125 -47.21875 L 0.484375 -47.21875 L 0.484375 -61.046875 L 11.328125 -61.046875 L 11.328125 -69.15625 C 11.328125 -75.75 13.332031 -80.914062 17.34375 -84.65625 C 21.363281 -88.394531 26.75 -90.265625 33.5 -90.265625 C 37.957031 -90.265625 41.894531 -89.347656 45.3125 -87.515625 C 48.726562 -85.691406 51.347656 -83.226562 53.171875 -80.125 L 47.09375 -68.796875 C 46.144531 -70.785156 44.796875 -72.394531 43.046875 -73.625 C 41.296875 -74.851562 39.390625 -75.46875 37.328125 -75.46875 C 34.941406 -75.46875 33.03125 -74.671875 31.59375 -73.078125 C 30.164062 -71.492188 29.453125 -69.429688 29.453125 -66.890625 L 29.453125 -61.046875 L 49 -61.046875 L 49 -47.21875 L 29.453125 -47.21875 L 29.5625 0 Z M 11.328125 0 "/></g></g></g><g fill="#000000" fill-opacity="1"><g transform="translate(667.996415, 277.481446)"><g><path d="M 32.671875 1.90625 C 25.671875 1.90625 20.28125 0 16.5 -3.8125 C 12.726562 -7.625 10.84375 -12.789062 10.84375 -19.3125 L 10.734375 -47.21875 L 0.484375 -47.21875 L 0.484375 -61.046875 L 10.84375 -61.046875 L 10.84375 -77.265625 L 28.96875 -81.3125 L 28.96875 -61.046875 L 49.84375 -61.046875 L 49.84375 -47.21875 L 28.96875 -47.21875 L 29.09375 -22.53125 C 29.09375 -19.507812 29.804688 -17.144531 31.234375 -15.4375 C 32.671875 -13.726562 34.582031 -12.875 36.96875 -12.875 C 41.5 -12.875 44.796875 -15.378906 46.859375 -20.390625 L 52.828125 -9.296875 C 50.910156 -5.722656 48.179688 -2.960938 44.640625 -1.015625 C 41.109375 0.929688 37.117188 1.90625 32.671875 1.90625 Z M 32.671875 1.90625 "/></g></g></g><g fill="#000000" fill-opacity="1"><g transform="translate(6.530529, 309.293016)"><g><path d="M 141.859375 -187.21875 L 141.859375 -154.453125 L 63.1875 -154.453125 L 63.1875 0 L 23.59375 0 L 23.59375 -187.21875 Z M 141.859375 -187.21875 "/></g></g></g></svg>